<?xml version="1.0" standalone="no"?>
<!DOCTYPE svg PUBLIC "-//W3C//DTD SVG 20010904//EN"
 "http://www.w3.org/TR/2001/REC-SVG-20010904/DTD/svg10.dtd">
<svg version="1.0" xmlns="http://www.w3.org/2000/svg"
 width="64.000000pt" height="64.000000pt" viewBox="0 0 64.000000 64.000000"
 preserveAspectRatio="xMidYMid meet">

<g transform="translate(0.000000,64.000000) scale(0.100000,-0.100000)"
fill="#000000" stroke="none">
<path d="M150 620 c-37 -37 -26 -57 97 -182 l117 -118 -117 -118 c-123 -125
-134 -145 -97 -182 38 -38 56 -27 212 127 112 112 148 153 148 172 0 19 -36
61 -148 173 -155 155 -174 166 -212 128z m190 -165 l135 -135 -140 -140 c-77
-77 -143 -140 -147 -140 -29 0 8 51 107 150 63 63 115 122 115 130 0 8 -54 69
-120 135 -66 66 -120 123 -120 127 0 30 54 -10 170 -127z"/>
</g>
</svg>
